# xmcd
# Copyright (C) 1995-1998 Ti Kan
#
# Track frame offsets:
#       150
#       9014
#       20850
#
# Disc length: 435 seconds
#
# Revision: 0
# Processed by: cddbd v1.5.1PL2 Copyright (c) Steve Scherf et al.
# Submitted via: CD-Transfer v1.0
#
DISCID=1601b103
DTITLE=Da Zillertaler Und Die Geigerin - 
DYEAR=1900
DGENRE=
TTITLE0=Ohne Geig´n Geht Nix
TTITLE1=Bei Der Geigerin Vom Zillertal
TTITLE2=Riedltischler Geigen Boarischer
EXTD=
EXTT0=
EXTT1=
EXTT2=
PLAYORDER=
